# xmcd CD database file
#
# Track frame offsets:
#	150
#	17587
#	37407
#	58745
#	75950
#	105205
#	120000
#	138917
#	155572
#	174655
#	199042
#	216382
#	234577
#	254227
#
# Disc length: 3648 seconds
#
# Revision: 0
# Processed by: cddbd v1.5.1PL0 Copyright (c) Steve Scherf et al.
# Submitted via: CDex 1.51
#
DISCID=bb0e3e0e
DTITLE=TOUR DE FORCE - Unreleased
DYEAR=2000
DGENRE=Hard Rock
TTITLE0=Stand Up
TTITLE1=All Nite Long
TTITLE2=On My Way
TTITLE3=Diana
TTITLE4=Over 'n' Over
TTITLE5=City Nites
TTITLE6=Roads
TTITLE7=Can't Change
TTITLE8=Lies
TTITLE9=Take My Love
TTITLE10=Back To Basics
TTITLE11=Can't Wait
TTITLE12=On The Edge
TTITLE13=Watercolors
EXTD=YEAR: 2000
EXTT0=
EXTT1=
EXTT2=
EXTT3=
EXTT4=
EXTT5=
EXTT6=
EXTT7=
EXTT8=
EXTT9=
EXTT10=
EXTT11=
EXTT12=
EXTT13=
PLAYORDER=
